<svg width="38" height="19" viewBox="0 0 38 19" fill="none" xmlns="http://www.w3.org/2000/svg">
<g id="Isolation_Mode" clip-path="url(#clip0_107_2648)">
<path id="Vector" d="M37.024 5.82866H12.4666C11.9408 5.82866 11.4902 5.37448 11.4902 4.84451C11.4902 4.31454 11.9408 3.86035 12.4666 3.86035H37.024C37.5498 3.86035 38.0003 4.31454 38.0003 4.84451C38.0003 5.37448 37.5498 5.82866 37.024 5.82866Z" fill="#4E5156"/>
<path id="Vector_2" d="M4.80642 5.82866H0.976373C0.450594 5.82866 0 5.37448 0 4.84451C0 4.31454 0.450594 3.86035 0.976373 3.86035H4.80642C5.3322 3.86035 5.78279 4.31454 5.78279 4.84451C5.78279 5.37448 5.40739 5.82866 4.80642 5.82866Z" fill="#4E5156"/>
<path id="Vector_3" d="M37.0237 15.1392H30.5652C30.0395 15.1392 29.5889 14.685 29.5889 14.1551C29.5889 13.6251 30.0395 13.1709 30.5652 13.1709H37.0237C37.5494 13.1709 38 13.6251 38 14.1551C38 14.685 37.5494 15.1392 37.0237 15.1392Z" fill="#4E5156"/>
<path id="Vector_4" d="M22.9051 15.1392H0.976373C0.450594 15.1392 0 14.685 0 14.1551C0 13.6251 0.450594 13.1709 0.976373 13.1709H22.9054C23.4311 13.1709 23.8817 13.6251 23.8817 14.1551C23.8817 14.685 23.4311 15.1392 22.9054 15.1392H22.9051Z" fill="#4E5156"/>
<path id="Vector_5" d="M8.6365 9.6892C6.00812 9.6892 3.83008 7.49406 3.83008 4.84447C3.83008 2.19488 6.00786 0 8.6365 0C11.2651 0 13.4429 2.19514 13.4429 4.84473C13.4429 7.49432 11.3401 9.68946 8.6365 9.68946V9.6892ZM8.6365 1.96805C7.05942 1.96805 5.78282 3.25482 5.78282 4.84447C5.78282 6.43412 7.05942 7.72089 8.6365 7.72089C10.2136 7.72089 11.4902 6.43412 11.4902 4.84447C11.4902 3.25482 10.2136 1.96805 8.6365 1.96805Z" fill="#4E5156"/>
<path id="Vector_6" d="M26.7351 19C24.1068 19 21.9287 16.8049 21.9287 14.1553C21.9287 11.5057 24.1065 9.31055 26.7351 9.31055C29.3638 9.31055 31.5416 11.5057 31.5416 14.1553C31.5416 16.8049 29.4387 19 26.7351 19ZM26.7351 11.2789C25.1581 11.2789 23.8815 12.5656 23.8815 14.1553C23.8815 15.7449 25.1581 17.0317 26.7351 17.0317C28.3122 17.0317 29.5888 15.7449 29.5888 14.1553C29.5888 12.5656 28.3122 11.2789 26.7351 11.2789Z" fill="#4E5156"/>
</g>
<defs>
<clipPath id="clip0_107_2648">
<rect width="38" height="19" fill="white"/>
</clipPath>
</defs>
</svg>
