<svg width="123" height="48" viewBox="0 0 123 48" fill="none" xmlns="http://www.w3.org/2000/svg">
<g id="Logo" clip-path="url(#clip0_142_1968)">
<g id="Group">
<path id="Vector" d="M67.5797 11.5312C65.5557 9.46982 62.8597 8.42365 59.5855 8.42365C55.4828 8.42365 51.9038 9.95804 48.9109 12.9881V8.87311H46.6681C44.3472 8.87311 42.4639 10.7407 42.4639 13.0423V22.2874H25.8191V0.0465088H23.5763C21.2554 0.0465088 19.3721 1.91412 19.3721 4.2157V26.0846C19.3721 27.8902 18.9423 29.0526 18.0593 29.6493C17.567 29.9748 16.2307 30.5328 12.9095 30.5328C9.58838 30.5328 8.08799 29.8973 7.58005 29.5176C6.82986 28.9596 6.45477 27.805 6.45477 26.0846V16.0103H4.20419C3.07891 16.0103 2.02395 16.4443 1.22687 17.2348C0.437611 18.0252 0 19.0714 0 20.1873V26.1544C0 29.4789 1.09403 32.0904 3.25864 33.927C5.22008 35.5932 7.8223 36.4456 11.0028 36.4456H14.8553C18.0984 36.4456 20.7396 35.5622 22.7089 33.8263C24.3109 32.3927 25.3033 30.5018 25.6706 28.2002H65.4932C66.7748 28.2002 67.8923 27.743 68.83 26.8518C69.8537 25.8676 70.3773 24.6355 70.3773 23.1941V18.6064C70.3773 15.7856 69.4317 13.3988 67.5797 11.5312ZM63.9225 22.2874H49.7783C51.1927 19.2651 52.9041 17.0798 54.8655 15.7779C56.2409 14.8867 57.71 14.4372 59.2338 14.4372C60.6013 14.4372 61.6797 14.7472 62.5393 15.3671C63.4614 16.0568 63.8991 16.9945 63.9225 18.2964V22.2874Z" fill="white"/>
<path id="Vector_2" d="M80.8249 0V23.9458C80.8249 26.2396 78.9416 28.115 76.6207 28.115H74.292V4.16145C74.292 1.86761 76.1831 0 78.4962 0H80.8249Z" fill="white"/>
<path id="Vector_3" d="M105.746 16.8008C105.746 18.5909 105.285 20.2802 104.487 21.7526L103.808 22.8376L96.1494 34.9964C95.2038 36.4921 93.2189 36.9493 91.7108 36.0116L88.9757 34.3145L92.4375 28.8201L93.555 27.061L98.5094 19.2031L98.525 19.1798L98.5406 19.1488C98.65 18.9938 98.7516 18.8311 98.8454 18.6684C99.1345 18.1104 99.2986 17.4827 99.2986 16.8163C99.2986 15.8476 98.947 14.9564 98.3609 14.2589C98.3062 14.2047 98.2515 14.1427 98.2046 14.0884C98.1968 14.073 98.189 14.0652 98.1733 14.0575C98.1577 14.042 98.1499 14.0265 98.1343 14.0187C98.1343 14.0187 98.1264 14.011 98.1186 14.0032C98.0874 13.9722 98.0561 13.9335 98.0249 13.9102C97.978 13.8637 97.9311 13.825 97.8764 13.7785C97.8217 13.7242 97.7592 13.6777 97.6966 13.6312C97.5247 13.4995 97.3528 13.3832 97.1575 13.2903C97.0715 13.2438 96.9933 13.1973 96.9074 13.1663C96.8761 13.1508 96.8527 13.1353 96.8214 13.1275C96.798 13.1198 96.7745 13.1043 96.7511 13.0965C96.7355 13.0888 96.712 13.081 96.6964 13.0733C96.6495 13.0578 96.6104 13.0423 96.5635 13.0268C96.462 12.988 96.3526 12.957 96.251 12.9338C96.1259 12.9028 95.9931 12.8795 95.8681 12.8563C95.8134 12.8485 95.7508 12.8408 95.6883 12.8408C95.6336 12.833 95.5867 12.8253 95.532 12.8253C95.4383 12.8253 95.3523 12.8175 95.2507 12.8175C94.0785 12.8175 93.0314 13.3135 92.2968 14.1039C91.9608 14.4682 91.6873 14.8944 91.4998 15.3671C91.3278 15.8088 91.2263 16.3048 91.2263 16.8085C91.2263 17.2812 91.3122 17.7307 91.4607 18.1492C91.4763 18.2034 91.4998 18.2576 91.5154 18.3041C91.5466 18.3971 91.5857 18.4824 91.6326 18.5599C91.6561 18.6219 91.6873 18.6761 91.7264 18.7381C91.7733 18.8234 91.8202 18.9086 91.8749 18.9861C92.0077 19.1953 92.164 19.3891 92.3359 19.5673C92.4922 19.73 92.6719 19.885 92.8595 20.0245C92.9064 20.0555 92.9454 20.0943 92.9923 20.1175C93.047 20.1485 93.1017 20.1873 93.1564 20.226C93.2111 20.2647 93.2658 20.2957 93.3284 20.319C93.5237 20.4275 93.7347 20.5127 93.9535 20.5902C93.9848 20.598 94.0082 20.6057 94.0395 20.6212L90.5698 26.1311C90.5698 26.1311 90.5073 26.1001 90.4761 26.0846C90.3198 26.0071 90.1635 25.9296 90.015 25.8366C89.9603 25.8056 89.9056 25.7746 89.8431 25.7436C89.804 25.7204 89.7649 25.6971 89.7259 25.6739C89.6087 25.6041 89.4914 25.5266 89.3664 25.4491C89.2179 25.3484 89.0773 25.2476 88.9288 25.1391C88.7647 25.0152 88.6084 24.8912 88.4521 24.7594C88.4365 24.7439 88.4209 24.7284 88.4052 24.7129C88.2567 24.5889 88.1083 24.4572 87.9676 24.3255C87.9598 24.3177 87.952 24.31 87.9442 24.3022C87.7957 24.155 87.6472 24.0077 87.5066 23.8605C87.3581 23.7055 87.2252 23.5428 87.0846 23.38C86.9595 23.225 86.8423 23.07 86.7251 22.9073C86.5923 22.7213 86.4594 22.5353 86.3422 22.3338C85.3341 20.7375 84.7559 18.8544 84.7559 16.8317C84.7559 11.0894 89.4524 6.43201 95.2429 6.43201C95.6102 6.43201 95.9696 6.44751 96.3213 6.48625C96.5557 6.5095 96.7824 6.5405 97.009 6.57925C98.0717 6.75748 99.0798 7.09846 100.01 7.57117C100.197 7.66417 100.385 7.76491 100.565 7.8734C100.744 7.98189 100.924 8.09039 101.096 8.20663C101.198 8.27637 101.299 8.34612 101.401 8.41586C101.409 8.42361 101.424 8.43136 101.432 8.43911C101.44 8.43911 101.448 8.45461 101.455 8.45461C101.487 8.47786 101.518 8.50111 101.549 8.5321C101.549 8.5321 101.552 8.5321 101.557 8.5321C101.557 8.5321 101.565 8.5321 101.573 8.53985C101.58 8.53985 101.588 8.55535 101.596 8.55535C101.651 8.60185 101.705 8.6406 101.76 8.68709C101.909 8.80333 102.057 8.92732 102.198 9.05906C102.284 9.12881 102.362 9.2063 102.44 9.27605C102.596 9.42329 102.737 9.57053 102.885 9.71777C102.948 9.78751 103.01 9.84951 103.065 9.927C103.136 10.0122 103.214 10.082 103.276 10.1672C103.292 10.1827 103.307 10.206 103.315 10.2215C103.401 10.3145 103.472 10.4152 103.55 10.5082C103.589 10.5625 103.628 10.609 103.659 10.6554C103.706 10.7097 103.745 10.7717 103.776 10.8259C103.8 10.8492 103.823 10.8802 103.831 10.9112C103.847 10.9344 103.87 10.9654 103.886 10.9964C103.979 11.1282 104.073 11.2754 104.159 11.4149C105.136 12.9958 105.699 14.8479 105.699 16.824L105.746 16.8008Z" fill="white"/>
</g>
<g id="Group_2">
<path id="Vector_4" d="M32.0163 39.0029L34.2512 46.7989L36.7441 39.0029H37.6271L34.6185 47.8295H33.8449L31.5787 40.0878L29.3125 47.8295H28.5701L25.5303 39.0029H26.4055L28.9218 46.7989L31.1333 39.0029H32.0163Z" fill="white"/>
<path id="Vector_5" d="M44.3792 47.8373H43.9025L43.7775 47.1243C43.1523 47.7133 42.4021 48 41.5425 48C40.9174 48 40.4016 47.8218 40.0187 47.4731C39.628 47.1166 39.4326 46.6516 39.4326 46.0782C39.4326 44.629 40.4641 43.9006 42.5272 43.9006H43.7228V43.7921C43.7228 42.5522 43.1211 41.94 41.9254 41.94C41.3159 41.94 40.7142 42.1492 40.1281 42.5677L39.8624 42.1802C40.4251 41.6222 41.1674 41.3433 42.0817 41.3433C42.8241 41.3433 43.3946 41.568 43.7931 42.0175C44.1916 42.4669 44.3948 43.1101 44.3948 43.9471V47.8373H44.3792ZM43.715 44.4585H42.6287C41.7457 44.4585 41.1205 44.5748 40.7376 44.8073C40.3547 45.0397 40.1672 45.4272 40.1672 45.9774C40.1672 46.4269 40.3078 46.7756 40.5813 47.0236C40.8549 47.2716 41.2378 47.4033 41.7301 47.4033C42.1208 47.4033 42.5115 47.3103 42.8944 47.1166C43.2773 46.9229 43.5509 46.6981 43.7071 46.4269V44.4585H43.715Z" fill="white"/>
<path id="Vector_6" d="M51.1855 42.2654C50.7323 42.0407 50.2321 41.9322 49.6695 41.9322C49.2475 41.9322 48.9115 42.0175 48.6692 42.1957C48.427 42.3739 48.302 42.6219 48.302 42.9319C48.302 43.2651 48.4035 43.5208 48.6145 43.6991C48.8255 43.8773 49.2397 44.0633 49.857 44.257C50.5994 44.4895 51.123 44.753 51.4277 45.0397C51.7325 45.3265 51.881 45.7139 51.881 46.1944C51.881 46.7214 51.6778 47.1553 51.2636 47.4886C50.8495 47.8218 50.3181 47.9923 49.6773 47.9923C48.8724 47.9923 48.1613 47.783 47.5518 47.3646L47.7315 46.9848C48.2863 47.2561 48.8724 47.3878 49.4898 47.3878C50.5994 47.3878 51.1464 46.9771 51.1464 46.1634C51.1464 45.8534 51.0292 45.6054 50.7948 45.4195C50.5603 45.2257 50.1305 45.0397 49.5132 44.8538C48.2004 44.4508 47.5439 43.8231 47.5439 42.9551C47.5439 42.4824 47.7315 42.0872 48.1066 41.785C48.4817 41.475 48.9662 41.3278 49.5523 41.3278C50.2165 41.3278 50.826 41.506 51.3809 41.8702L51.1699 42.2577L51.1855 42.2654Z" fill="white"/>
<path id="Vector_7" d="M54.999 39.3361C54.999 39.1966 55.0459 39.0804 55.1475 38.9796C55.2491 38.8789 55.3663 38.8324 55.507 38.8324C55.6476 38.8324 55.7648 38.8789 55.8664 38.9796C55.968 39.0804 56.0149 39.1966 56.0149 39.3361C56.0149 39.4756 55.968 39.5918 55.8664 39.6926C55.7648 39.7933 55.6476 39.8398 55.507 39.8398C55.3663 39.8398 55.2491 39.7933 55.1475 39.6926C55.0459 39.5918 54.999 39.4756 54.999 39.3361ZM55.8274 41.4982V47.8295H55.1631V41.4982H55.8274Z" fill="white"/>
<path id="Vector_8" d="M60.2033 38.8401V47.8372H59.5391V39.2043L60.2033 38.8401Z" fill="white"/>
<path id="Vector_9" d="M72.1203 39.9638C71.5889 39.6693 70.9794 39.5143 70.2917 39.5143C69.6666 39.5143 69.1821 39.6461 68.8382 39.9018C68.4944 40.1653 68.3225 40.5295 68.3225 41.0022C68.3225 41.6609 68.9086 42.2111 70.0807 42.6451C71.1279 43.0326 71.8546 43.4433 72.2532 43.8695C72.6517 44.2957 72.8471 44.8692 72.8471 45.5899C72.8471 46.3494 72.5501 46.9616 71.9484 47.4188C71.4405 47.7985 70.8309 47.9922 70.1198 47.9922C69.1977 47.9922 68.3147 47.7132 67.4629 47.1553L67.7833 46.6981C68.5413 47.1088 69.268 47.3103 69.9635 47.3103C70.5887 47.3103 71.0966 47.1553 71.4795 46.8453C71.8624 46.5353 72.05 46.1169 72.05 45.5977C72.05 45.0784 71.9015 44.629 71.6124 44.3035C71.2998 43.978 70.7997 43.6913 70.0964 43.4511C69.1743 43.1411 68.51 42.8001 68.0959 42.4126C67.6817 42.0252 67.4785 41.5602 67.4785 41.01C67.4785 40.3435 67.752 39.8011 68.2912 39.3904C68.7757 39.0184 69.4087 38.8324 70.1901 38.8324C71.0341 38.8324 71.7921 39.0571 72.472 39.4988L72.1203 39.9561V39.9638Z" fill="white"/>
<path id="Vector_10" d="M80.9975 44.908H76.3869C76.4025 45.6829 76.676 46.3029 77.1996 46.7756C77.6841 47.1941 78.3015 47.4033 79.0438 47.4033C79.669 47.4033 80.2238 47.2328 80.6927 46.8996L80.9584 47.3336C80.3957 47.783 79.6846 48 78.8172 48C77.8326 48 77.0433 47.6668 76.4416 46.9926C75.9102 46.3881 75.6367 45.6209 75.6367 44.691C75.6367 43.7068 75.9259 42.8854 76.4963 42.2189C77.0199 41.6222 77.6607 41.3278 78.4265 41.3278C79.333 41.3278 80.0206 41.723 80.4817 42.5134C80.8255 43.1101 81.0053 43.8386 81.0053 44.7065V44.9002L80.9975 44.908ZM76.3947 44.35H80.2942C80.2785 43.5751 80.0988 42.9784 79.7706 42.5599C79.4424 42.1337 78.9891 41.9245 78.403 41.9245C77.856 41.9245 77.4028 42.1492 77.0277 42.5987C76.6526 43.0481 76.4416 43.6293 76.3947 44.35Z" fill="white"/>
<path id="Vector_11" d="M84.7794 42.2111C85.4359 41.6222 86.061 41.3354 86.6471 41.3354C87.2879 41.3354 87.7646 41.5214 88.085 41.8934L87.538 42.3274C87.2254 42.0794 86.8815 41.9477 86.4986 41.9477C85.9204 41.9477 85.3655 42.2654 84.842 42.8931V47.8295H84.1777V41.4982H84.7247L84.7794 42.2111Z" fill="white"/>
<path id="Vector_12" d="M93.5164 47.8373H92.7115L90.3359 41.506H91.0783L93.1335 47.0856L95.1418 41.506H95.8842L93.5086 47.8373H93.5164Z" fill="white"/>
<path id="Vector_13" d="M98.541 39.3361C98.541 39.1966 98.5879 39.0804 98.6895 38.9796C98.7911 38.8789 98.9083 38.8324 99.049 38.8324C99.1896 38.8324 99.3068 38.8789 99.4084 38.9796C99.51 39.0804 99.5569 39.1966 99.5569 39.3361C99.5569 39.4756 99.51 39.5918 99.4084 39.6926C99.3068 39.7933 99.1896 39.8398 99.049 39.8398C98.9083 39.8398 98.7911 39.7933 98.6895 39.6926C98.5879 39.5918 98.541 39.4756 98.541 39.3361ZM99.3694 41.4982V47.8295H98.7051V41.4982H99.3694Z" fill="white"/>
<path id="Vector_14" d="M107.879 47.3723C107.356 47.7907 106.676 48 105.84 48C104.839 48 104.035 47.659 103.433 46.9693C102.917 46.3648 102.659 45.6054 102.659 44.6987C102.659 43.6758 102.995 42.8388 103.659 42.1879C104.238 41.6222 104.941 41.3354 105.754 41.3354C106.566 41.3354 107.231 41.5369 107.739 41.9322L107.473 42.3196C107.004 42.0561 106.504 41.9322 105.965 41.9322C105.121 41.9322 104.464 42.2266 103.995 42.8233C103.605 43.3193 103.402 43.9548 103.402 44.7375C103.402 45.5744 103.652 46.2331 104.16 46.7213C104.628 47.1785 105.261 47.4033 106.058 47.4033C106.605 47.4033 107.121 47.256 107.621 46.9538L107.871 47.3723H107.879Z" fill="white"/>
<path id="Vector_15" d="M115.905 44.908H111.294C111.31 45.6829 111.583 46.3029 112.107 46.7756C112.591 47.1941 113.209 47.4033 113.951 47.4033C114.576 47.4033 115.131 47.2328 115.6 46.8996L115.866 47.3336C115.303 47.783 114.592 48 113.724 48C112.74 48 111.951 47.6668 111.349 46.9926C110.817 46.3881 110.544 45.6209 110.544 44.691C110.544 43.7068 110.833 42.8854 111.404 42.2189C111.927 41.6222 112.568 41.3278 113.334 41.3278C114.24 41.3278 114.928 41.723 115.389 42.5134C115.733 43.1101 115.912 43.8386 115.912 44.7065V44.9002L115.905 44.908ZM111.302 44.35H115.201C115.186 43.5751 115.006 42.9784 114.678 42.5599C114.35 42.1337 113.896 41.9245 113.31 41.9245C112.763 41.9245 112.31 42.1492 111.935 42.5987C111.56 43.0481 111.349 43.6293 111.302 44.35Z" fill="white"/>
<path id="Vector_16" d="M122.297 42.2654C121.844 42.0407 121.343 41.9322 120.781 41.9322C120.359 41.9322 120.023 42.0175 119.781 42.1957C119.538 42.3739 119.413 42.6219 119.413 42.9319C119.413 43.2651 119.515 43.5208 119.726 43.6991C119.937 43.8773 120.351 44.0633 120.968 44.257C121.711 44.4895 122.234 44.753 122.539 45.0397C122.844 45.3265 122.992 45.7139 122.992 46.1944C122.992 46.7214 122.789 47.1553 122.375 47.4886C121.961 47.8218 121.429 47.9923 120.789 47.9923C119.984 47.9923 119.273 47.783 118.663 47.3646L118.843 46.9848C119.398 47.2561 119.984 47.3878 120.601 47.3878C121.711 47.3878 122.258 46.9771 122.258 46.1634C122.258 45.8534 122.141 45.6054 121.906 45.4195C121.672 45.2257 121.242 45.0397 120.625 44.8538C119.312 44.4508 118.655 43.8231 118.655 42.9551C118.655 42.4824 118.843 42.0872 119.218 41.785C119.593 41.475 120.078 41.3278 120.664 41.3278C121.328 41.3278 121.937 41.506 122.492 41.8702L122.281 42.2577L122.297 42.2654Z" fill="white"/>
</g>
</g>
<defs>
<clipPath id="clip0_142_1968">
<rect width="123" height="48" fill="white"/>
</clipPath>
</defs>
</svg>
