<svg width="40" height="40" viewBox="0 0 40 40" fill="none" xmlns="http://www.w3.org/2000/svg">
<g id="pickup-truck-svgrepo-com 5" clip-path="url(#clip0_139_3349)">
<path id="Vector" d="M26.667 10H17.5003V16.6667H1.66699V25H5.00033C5.00033 26.3261 5.52711 27.5979 6.46479 28.5355C7.40247 29.4732 8.67424 30 10.0003 30C11.3264 30 12.5982 29.4732 13.5359 28.5355C14.4735 27.5979 15.0003 26.3261 15.0003 25H25.0003C25.0003 26.3261 25.5271 27.5979 26.4648 28.5355C27.4025 29.4732 28.6742 30 30.0003 30C31.3264 30 32.5982 29.4732 33.5359 28.5355C34.4735 27.5979 35.0003 26.3261 35.0003 25H38.3337V20C38.3337 19.1159 37.9825 18.2681 37.3573 17.643C36.7322 17.0179 35.8844 16.6667 35.0003 16.6667H31.667L26.667 10ZM20.0003 12.5H25.8337L29.167 16.6667H20.0003V12.5ZM10.0003 22.5C10.4948 22.5 10.9781 22.6466 11.3893 22.9213C11.8004 23.196 12.1208 23.5865 12.31 24.0433C12.4992 24.5001 12.5488 25.0028 12.4523 25.4877C12.3558 25.9727 12.1177 26.4181 11.7681 26.7678C11.4185 27.1174 10.973 27.3555 10.4881 27.452C10.0031 27.5484 9.50043 27.4989 9.04362 27.3097C8.5868 27.1205 8.19635 26.8 7.92165 26.3889C7.64695 25.9778 7.50033 25.4945 7.50033 25C7.50033 24.337 7.76372 23.7011 8.23256 23.2322C8.7014 22.7634 9.33728 22.5 10.0003 22.5ZM30.0003 22.5C30.4948 22.5 30.9781 22.6466 31.3892 22.9213C31.8004 23.196 32.1208 23.5865 32.31 24.0433C32.4992 24.5001 32.5487 25.0028 32.4523 25.4877C32.3558 25.9727 32.1177 26.4181 31.7681 26.7678C31.4185 27.1174 30.973 27.3555 30.488 27.452C30.0031 27.5484 29.5004 27.4989 29.0436 27.3097C28.5868 27.1205 28.1964 26.8 27.9216 26.3889C27.6469 25.9778 27.5003 25.4945 27.5003 25C27.5003 24.337 27.7637 23.7011 28.2326 23.2322C28.7014 22.7634 29.3373 22.5 30.0003 22.5Z" fill="#4E5156"/>
</g>
<defs>
<clipPath id="clip0_139_3349">
<rect width="40" height="40" fill="white"/>
</clipPath>
</defs>
</svg>
